<svg
    width="16"
    height="16"
    viewBox="0 0 16 16"
    fill="none"
    xmlns="http://www.w3.org/2000/svg"
    >
    <g clip-path="url(#clip0_2856_1604)">
        <path
        fill-rule="evenodd"
        clip-rule="evenodd"
        d="M7.25 2.16634C4.44256 2.16634 2.16667 4.44223 2.16667 7.24967C2.16667 10.0571 4.44256 12.333 7.25 12.333C8.6526 12.333 9.92145 11.7658 10.8419 10.8467C11.764 9.92589 12.3333 8.6549 12.3333 7.24967C12.3333 4.44223 10.0575 2.16634 7.25 2.16634ZM0.833336 7.24967C0.833336 3.70585 3.70618 0.833008 7.25 0.833008C10.7938 0.833008 13.6667 3.70585 13.6667 7.24967C13.6667 8.78248 13.1286 10.1905 12.232 11.2939L14.971 14.0278C15.2316 14.2879 15.232 14.7101 14.9718 14.9706C14.7117 15.2312 14.2896 15.2316 14.029 14.9715L11.2887 12.2362C10.1861 13.13 8.78023 13.6663 7.25 13.6663C3.70618 13.6663 0.833336 10.7935 0.833336 7.24967Z"
        fill="#9A9CA5"
        />
    </g>
    <defs>
        <clipPath id="clip0_2856_1604">
        <rect width="16" height="16" fill="white" />
        </clipPath>
    </defs>
</svg>